<svg width="109" height="85" viewBox="0 0 109 85" fill="none" xmlns="http://www.w3.org/2000/svg">
<path d="M54.9451 48.459C56.947 48.459 58.8025 47.5312 60.9509 45.3828L103.431 3.3418C101.625 1.584 98.256 0.753906 93.422 0.753906H14.8084C10.7068 0.753906 7.82586 1.53521 6.21456 3.14651L48.9392 45.3828C51.0388 47.4824 52.8943 48.459 54.9451 48.459ZM2.16186 77.0234L36.6834 42.8926L2.06416 8.76171C1.33176 10.1289 0.941162 12.4727 0.941162 15.8418V69.7481C0.941162 73.2148 1.33176 75.6563 2.16186 77.0234ZM107.582 76.9746C108.363 75.5586 108.754 73.166 108.754 69.7481V15.8418C108.754 12.5703 108.363 10.2266 107.679 8.90821L73.158 42.8926L107.582 76.9746ZM16.2732 84.8848H94.886C98.988 84.8848 101.82 84.1035 103.431 82.541L68.2263 47.6777L65.0037 50.9492C61.6345 54.1719 58.4607 55.6367 54.9451 55.6367C51.3806 55.6367 48.2068 54.1719 44.8865 50.9492L41.615 47.6777L6.50756 82.4922C8.36296 84.1035 11.5857 84.8848 16.2732 84.8848Z" fill="white"/>
</svg>
